<svg xmlns="http://www.w3.org/2000/svg" width="96" height="96"><defs><linearGradient id="a" x1=".5" x2=".5" y2="1" gradientUnits="objectBoundingBox"><stop offset="0" stop-color="#5690ff"/><stop offset=".369" stop-color="#8bb3ff"/><stop offset="1" stop-color="#5690ff"/></linearGradient><linearGradient id="b" x1=".5" x2=".5" y2="1" gradientUnits="objectBoundingBox"><stop offset="0" stop-color="#5690ff"/><stop offset="1" stop-color="#387dff"/></linearGradient><style>.a{opacity:.2}.a,.c{fill:url(#a)}.b{fill:url(#b)}.d,.e{fill:#1f273c}.e{stroke:#1f273c}.k{fill:none}.i{fill:#fff}.j{stroke:none}</style></defs><g transform="translate(-728 -1097)"><circle class="a" cx="48" cy="48" r="48" transform="translate(728 1097)"/><circle class="b" cx="45" cy="45" r="45" transform="translate(731 1100)"/><circle class="c" cx="45" cy="45" r="45" transform="translate(731 1099.999)"/><path class="d" d="M797.124 1144.27c-.384-.536-9.472-13.036-21.041-13.036s-20.827 12.5-21.208 13.036a1.248 1.248 0 000 1.457c.381.533 9.638 13.038 21.208 13.038s20.659-12.505 21.04-13.038a1.248 1.248 0 00.001-1.457zm-21.04 9.489a8.762 8.762 0 110-17.521 8.761 8.761 0 010 17.521z"/><path class="d" d="M776.083 1141.245a3.758 3.758 0 100 7.509 3.755 3.755 0 000-7.509zm-5.656 6.131l-.612.354a.66.66 0 10.66 1.143l.612-.354a.66.66 0 00-.66-1.143zm10.821-6.253l-.612.354a.66.66 0 10.66 1.143l.612-.354a.66.66 0 00-.66-1.143zm-1.867 8.654a.66.66 0 00-1.144.66l.353.612a.66.66 0 001.143-.66zm-6.248-10.83a.66.66 0 10-1.144.66l.353.612a.66.66 0 001.143-.66zm7.502 9.572l.612.354a.66.66 0 00.66-1.143l-.612-.354a.66.66 0 00-.66 1.143zm-9.548-7.042l-.612-.354a.66.66 0 00-.66 1.143l.612.354a.66.66 0 00.66-1.143zm1.144 9.814a.66.66 0 00.9-.242l.353-.612a.66.66 0 00-1.144-.66l-.353.612a.66.66 0 00.242.9zm6.577-10.741a.66.66 0 00.572-.33l.353-.612a.66.66 0 00-1.144-.66l-.353.612a.66.66 0 00.571.99zm-10.208 4.448a.66.66 0 00.66.66h.707a.66.66 0 100-1.32h-.705a.66.66 0 00-.662.66zm12.495 0a.66.66 0 00.66.66h.707a.66.66 0 100-1.32h-.707a.66.66 0 00-.66.66zm-5.894 5.899v.707a.66.66 0 101.32 0v-.707a.66.66 0 10-1.32 0zm1.32-11.798v-.707a.66.66 0 10-1.32 0v.707a.66.66 0 101.32 0zm10.078 22.42c.009-.376.015-.738.015-1.094a.66.66 0 10-1.32 0c0 .478-.013.977-.026 1.506q0 .141-.007.283c-.025 1.031-.022.43-.021 1.466 0 2.336.246 4.693 1.709 6.193a5.448 5.448 0 004.069 1.465h8.681a.66.66 0 100-1.32h-8.681a4.143 4.143 0 01-3.124-1.067c-1.246-1.278-1.362-3.633-1.329-5.914.016-1.086.014-.642.034-1.518z"/><path class="d" d="M797.7 1166.788h-5.2a.66.66 0 100 1.32h5.2a.66.66 0 100-1.32zm-34.516-37.309c-.009.376-.015.738-.015 1.094a.66.66 0 101.32 0c0-.478.013-.977.026-1.506q0-.141.007-.283c.025-1.031.022-.43.021-1.466 0-2.336-.246-4.693-1.709-6.193a5.448 5.448 0 00-4.069-1.466h-8.681a.66.66 0 000 1.32h8.681a4.143 4.143 0 013.124 1.067c1.246 1.278 1.362 3.633 1.329 5.915-.016 1.086-.014.642-.034 1.518z"/><path class="d" d="M752.083 1124.209h5.2a.66.66 0 000-1.32h-5.2a.66.66 0 000 1.32zm29.487 1.901c.007.31.013.609.013.9a.545.545 0 01-.545.545.545.545 0 01-.545-.545c0-.394-.01-.807-.021-1.243q0-.116-.006-.234c-.018-.848-.018-.351-.018-1.207 0-1.928.2-3.874 1.412-5.112a4.5 4.5 0 013.358-1.21h6.515a.545.545 0 010 1.09h-6.515a3.42 3.42 0 00-2.579.881c-1.028 1.055-1.124 2.999-1.097 4.882.013.897.011.531.028 1.253z"/><g class="e" transform="translate(791.419 1116.558)"><circle class="j" cx="2" cy="2" r="2"/><circle class="k" cx="2" cy="2" r="1.5"/></g><g class="e" transform="rotate(180 372.018 578.418)"><circle class="j" cx="2" cy="2" r="2"/><circle class="k" cx="2" cy="2" r="1.5"/></g><path d="M756.359 1151l-3.935 3.834h-10.388m49.727-18.462l3.181-3.322h7.539" stroke-linecap="round" fill="none" stroke="#1f273c"/><path class="d" d="M772.208 1165.426c-.007-.31-.013-.609-.013-.9a.545.545 0 111.09 0c0 .394.01.807.021 1.243q0 .116.006.234c.018.848.018.351.018 1.207 0 1.928-.2 3.874-1.412 5.112a4.5 4.5 0 01-3.358 1.21h-5.515a.545.545 0 010-1.09h5.515a3.42 3.42 0 002.579-.881c1.029-1.055 1.125-3 1.1-4.882-.016-.897-.014-.531-.031-1.253z"/><path class="d" d="M763.376 1174.822a1.177 1.177 0 011.105-.6.476.476 0 00.476-.391 4.679 4.679 0 000-1.629.476.476 0 00-.476-.391 1.177 1.177 0 01-1.105-.6 1.191 1.191 0 01.043-1.249.476.476 0 00-.1-.629 4.764 4.764 0 00-1.386-.805.476.476 0 00-.591.21 1.177 1.177 0 01-2.125 0 .476.476 0 00-.591-.229 4.765 4.765 0 00-1.386.824.476.476 0 00-.1.629 1.191 1.191 0 01.042 1.26 1.177 1.177 0 01-1.105.6.476.476 0 00-.476.391 4.679 4.679 0 000 1.629.476.476 0 00.476.391 1.177 1.177 0 011.105.6 1.191 1.191 0 01-.043 1.263.476.476 0 00.1.629 4.765 4.765 0 001.386.805.476.476 0 00.591-.21 1.177 1.177 0 012.125 0 .476.476 0 00.591.229 4.764 4.764 0 001.386-.805.476.476 0 00.1-.629 1.191 1.191 0 01-.042-1.293zm-3.1.1a1.906 1.906 0 111.909-1.9 1.906 1.906 0 01-1.906 1.909z"/><g transform="translate(802.201 1129.5)" stroke-width="1.5" fill="none" stroke="#1f273c"><rect class="j" width="6.945" height="6.945" rx="1"/><rect class="k" x=".75" y=".75" width="5.445" height="5.445" rx=".25"/></g><g transform="translate(802.93 1135.341)"><rect class="d" width=".905" height="2.159" rx=".453"/><rect class="d" width=".905" height="2.159" rx=".453" transform="translate(2.264)"/><rect class="d" width=".905" height="2.159" rx=".453" transform="translate(4.527)"/></g><g transform="translate(802.93 1128.5)"><rect class="d" width=".905" height="2.419" rx=".453"/><rect class="d" width=".905" height="2.419" rx=".453" transform="translate(2.264)"/><rect class="d" width=".905" height="2.419" rx=".453" transform="translate(4.527)"/></g><g transform="rotate(90 -160.069 970.214)"><rect class="d" width=".905" height="2.219" rx=".453"/><rect class="d" width=".905" height="2.219" rx=".453" transform="translate(2.264)"/><rect class="d" width=".905" height="2.219" rx=".453" transform="translate(4.527)"/></g><g transform="rotate(90 -163.574 966.709)"><rect class="d" width=".905" height="1.989" rx=".453"/><rect class="d" width=".905" height="1.989" rx=".453" transform="translate(2.264)"/><rect class="d" width=".905" height="1.989" rx=".453" transform="translate(4.527)"/></g><circle class="a" cx="48" cy="48" r="48" transform="translate(728 1097)"/><circle class="b" cx="45" cy="45" r="45" transform="translate(731 1100)"/><circle class="c" cx="45" cy="45" r="45" transform="translate(731 1099.999)"/><path class="i" d="M802.682 1128.4h-3.658v-1.248a1.076 1.076 0 00-.775-1.076 30.312 30.312 0 00-7.759-.99c-4.3 0-10.169.968-14.506 5.381-4.304-4.456-10.212-5.385-14.506-5.385a30.312 30.312 0 00-7.759.99 1.076 1.076 0 00-.777 1.08v1.238h-3.624a1.076 1.076 0 00-1.076 1.075v34.371a1.073 1.073 0 001.6.936c.108-.054 10.869-5.94 25.891-2.152h.258a1.078 1.078 0 00.258 0c15.066-3.82 25.827 2.055 25.891 2.152a1.076 1.076 0 001.614-.925v-34.371a1.076 1.076 0 00-1.072-1.076z" opacity=".8"/><path class="i" d="M802.682 1128.4h-3.658v-1.248a1.076 1.076 0 00-.775-1.076 30.312 30.312 0 00-7.759-.99c-4.3 0-10.169.968-14.506 5.381-4.304-4.456-10.212-5.385-14.506-5.385a30.312 30.312 0 00-7.759.99 1.076 1.076 0 00-.777 1.08v1.238h-3.624a1.076 1.076 0 00-1.076 1.075v34.371a1.073 1.073 0 001.6.936c.108-.054 10.869-5.94 25.891-2.152h.258a1.078 1.078 0 00.258 0c15.066-3.82 25.827 2.055 25.891 2.152a1.076 1.076 0 001.614-.925v-34.371a1.076 1.076 0 00-1.072-1.076zm-52.288 33.725v-31.573h2.572v26.989a1.076 1.076 0 001.238 1.076 47.093 47.093 0 016.726-.538 27.914 27.914 0 019.19 1.388 39.56 39.56 0 00-19.726 2.658zm10.535-6.188a47.342 47.342 0 00-5.854.377v-28.312a29.68 29.68 0 016.381-.71c4.025 0 9.577.925 13.43 5.273l.032 26.806c-2.238-1.464-6.607-3.433-13.989-3.433zm16.142-23.373c3.852-4.3 9.405-5.273 13.43-5.273a29.809 29.809 0 016.381.71v28.313a47.332 47.332 0 00-5.822-.387c-7.339 0-11.719 1.969-13.989 3.433zm24.524 29.561a39.568 39.568 0 00-19.768-2.658 27.98 27.98 0 019.233-1.385 47.078 47.078 0 016.769.527 1.076 1.076 0 001.238-1.076v-26.981h2.575z"/></g></svg>