<svg xmlns="http://www.w3.org/2000/svg" width="15.786" height="18.753"><path d="M5.86 18.753h7a2.933 2.933 0 002.93-2.93V5.9a2.933 2.933 0 00-2.93-2.93h-7A2.933 2.933 0 002.93 5.9v9.926a2.933 2.933 0 002.93 2.927zm7-14.321A1.467 1.467 0 0114.321 5.9v9.926a1.467 1.467 0 01-1.465 1.465h-7A1.467 1.467 0 014.4 15.823V5.9a1.467 1.467 0 011.46-1.468zM0 13.991V2.93A2.933 2.933 0 012.93 0h8.131a.733.733 0 110 1.465H2.93A1.467 1.467 0 001.465 2.93v11.061a.733.733 0 01-1.465 0zm0 0" fill="#3472de"/></svg>