<svg xmlns="http://www.w3.org/2000/svg" width="96" height="96"><defs><linearGradient id="a" x1=".5" x2=".5" y2="1" gradientUnits="objectBoundingBox"><stop offset="0" stop-color="#5690ff"/><stop offset=".369" stop-color="#8bb3ff"/><stop offset="1" stop-color="#5690ff"/></linearGradient><linearGradient id="b" x1=".5" x2=".5" y2="1" gradientUnits="objectBoundingBox"><stop offset="0" stop-color="#5690ff"/><stop offset="1" stop-color="#387dff"/></linearGradient></defs><g transform="translate(-356 -1097)"><circle cx="48" cy="48" r="48" transform="translate(356 1097)" fill="url(#a)" opacity=".2"/><circle cx="45" cy="45" r="45" transform="translate(359 1100)" fill="url(#b)"/><circle cx="45" cy="45" r="45" transform="translate(359 1099.999)" fill="url(#a)"/><path d="M434.946 1143.933c-.559-.782-13.875-19.1-30.823-19.1s-30.514 18.318-31.07 19.1a1.828 1.828 0 000 2.134c.559.781 14.12 19.1 31.069 19.1s30.265-18.32 30.823-19.1a1.828 1.828 0 00.001-2.134zm-30.823 13.9a12.836 12.836 0 110-25.668 12.834 12.834 0 010 25.668z" stroke="#fff" stroke-width="1.5" fill="rgba(255,255,255,.8)"/><path d="M404.123 1139.499a5.505 5.505 0 100 11 5.5 5.5 0 000-11z" fill="rgba(255,255,255,.75)" stroke="#fff" stroke-width="1.5"/><path d="M395.892 1148.485l-.9.518a.968.968 0 10.968 1.676l.9-.518a.968.968 0 00-.968-1.676zm15.867-9.168l-.9.518a.968.968 0 10.968 1.676l.9-.519a.968.968 0 00-.968-1.676zm-2.738 12.688a.968.968 0 00-1.677.967l.518.9a.968.968 0 001.677-.967zm-9.161-15.88a.968.968 0 10-1.677.967l.518.9a.968.968 0 001.677-.967zm11.001 14.035l.9.518a.968.968 0 00.968-1.676l-.9-.518a.968.968 0 00-.968 1.676zm-14.001-10.323l-.9-.518a.968.968 0 00-.968 1.676l.9.519a.968.968 0 00.968-1.676zm1.678 14.389a.967.967 0 001.322-.355l.518-.9a.968.968 0 00-1.677-.967l-.518.9a.968.968 0 00.355 1.322zm9.643-15.75a.968.968 0 00.839-.484l.518-.9a.968.968 0 00-1.677-.967l-.518.9a.968.968 0 00.838 1.452zm-14.967 6.522a.968.968 0 00.968.968h1.036a.968.968 0 100-1.936h-1.036a.968.968 0 00-.968.968zm18.321 0a.968.968 0 00.968.968h1.036a.968.968 0 100-1.936h-1.036a.968.968 0 00-.968.968zm-8.642 8.649v1.037a.968.968 0 101.936 0v-1.037a.968.968 0 00-1.936 0zm1.936-17.298v-1.037a.968.968 0 10-1.936 0v1.037a.968.968 0 101.936 0z" fill="#fff" opacity=".75"/></g></svg>