<svg xmlns="http://www.w3.org/2000/svg" width="96" height="96"><defs><linearGradient id="a" x1=".5" x2=".5" y2="1" gradientUnits="objectBoundingBox"><stop offset="0" stop-color="#5690ff"/><stop offset=".369" stop-color="#8bb3ff"/><stop offset="1" stop-color="#5690ff"/></linearGradient><linearGradient id="b" x1=".5" x2=".5" y2="1" gradientUnits="objectBoundingBox"><stop offset="0" stop-color="#5690ff"/><stop offset="1" stop-color="#387dff"/></linearGradient></defs><g transform="translate(-542 -1097)"><circle cx="48" cy="48" r="48" transform="translate(542 1097)" fill="url(#a)" opacity=".2"/><circle cx="45" cy="45" r="45" transform="translate(545 1100)" fill="url(#b)"/><circle cx="45" cy="45" r="45" transform="translate(545 1099.999)" fill="url(#a)"/><path d="M588.991 1126.44v-3.712a10.744 10.744 0 00-10.577 8.829l-2.108 11.587h-4.947v3.712h4.273l-1.987 10.924a7.035 7.035 0 01-6.926 5.78v3.712a10.744 10.744 0 0010.577-8.829l2.108-11.587h4.015v-3.712h-3.34l1.987-10.923a7.035 7.035 0 016.925-5.781zm3.587 8.37l-1.359-1.018c-.118.157-2.887 3.934-2.887 11.21s2.769 11.053 2.887 11.21l2.717-2.038c-.021-.029-2.207-3.113-2.207-9.171s2.193-9.151 2.215-9.183zm17.993 1.019c.022.029 2.208 3.113 2.208 9.171s-2.194 9.151-2.216 9.183l1.372 1.009 1.359 1.019c.119-.158 2.887-3.934 2.887-11.21s-2.77-11.053-2.887-11.21zm-6.069 3.072l-2.211 3.041-2.211-3.041-3 2.184 2.918 4.012-2.918 4.012 3 2.184 2.211-3.041 2.211 3.041 3-2.184-2.918-4.012 2.918-4.012zm0 0" fill="rgba(255,255,255,.8)" stroke="#fff" stroke-width="1.2"/></g></svg>