<svg xmlns="http://www.w3.org/2000/svg" width="24.265" height="23.254"><path d="M12.132 0A12.027 12.027 0 000 11.922a11.942 11.942 0 008.3 11.311c.607.112.829-.257.829-.573 0-.283-.01-1.033-.015-2.027-3.375.719-4.087-1.6-4.087-1.6a3.178 3.178 0 00-1.35-1.744c-1.1-.739.085-.724.085-.724a2.538 2.538 0 011.858 1.228 2.612 2.612 0 003.534.992 2.524 2.524 0 01.768-1.594c-2.694-.3-5.526-1.323-5.526-5.891a4.555 4.555 0 011.245-3.2 4.171 4.171 0 01.106-3.155s1.016-.319 3.336 1.222a11.632 11.632 0 016.066 0c2.305-1.542 3.321-1.222 3.321-1.222a4.286 4.286 0 01.122 3.155 4.573 4.573 0 011.244 3.2c0 4.58-2.836 5.588-5.535 5.881a2.829 2.829 0 01.819 2.206c0 1.6-.015 2.877-.015 3.265 0 .312.212.685.834.566a11.906 11.906 0 008.327-11.3A12.029 12.029 0 0012.132 0z" fill="#3472de"/></svg>