<svg xmlns="http://www.w3.org/2000/svg" width="137.836" height="30.231"><path d="M40.22 15.757q.789-.856 1.632-1.784t1.632-1.838q.789-.91 1.488-1.731t1.2-1.428h6.361q-1.9 2.186-3.716 4.174t-3.967 4.1a24.722 24.722 0 012.226 2.32q1.148 1.349 2.226 2.787t1.975 2.877q.9 1.438 1.508 2.625h-6.151q-.574-.936-1.308-2.069t-1.559-2.267q-.824-1.133-1.738-2.177a14.63 14.63 0 00-1.81-1.764v8.277H34.87v-27l5.349-.862zm31.809 2.625a12.281 12.281 0 01-.646 4.075 8.859 8.859 0 01-1.867 3.159 8.4 8.4 0 01-2.926 2.028 9.77 9.77 0 01-3.823.718 9.672 9.672 0 01-3.788-.718 8.389 8.389 0 01-2.926-2.028 9.275 9.275 0 01-1.9-3.159 11.686 11.686 0 01-.682-4.075 11.277 11.277 0 01.7-4.057 9.2 9.2 0 011.939-3.124 8.708 8.708 0 012.944-2.01 9.478 9.478 0 013.716-.718 9.575 9.575 0 013.752.718 8.527 8.527 0 012.926 2.01 9.132 9.132 0 011.9 3.124 11.553 11.553 0 01.681 4.057zm-5.457 0a6.727 6.727 0 00-.987-3.9 3.229 3.229 0 00-2.818-1.418 3.274 3.274 0 00-2.836 1.418 6.633 6.633 0 00-1.005 3.9 6.806 6.806 0 001.005 3.932 3.249 3.249 0 002.836 1.454 3.2 3.2 0 002.818-1.454 6.9 6.9 0 00.987-3.932zm20.967-4.667q-.719-.179-1.687-.377a10.476 10.476 0 00-2.083-.2 9.741 9.741 0 00-1.2.09 7.1 7.1 0 00-1.059.2v14.433h-5.349V9.981a32.236 32.236 0 013.393-.951 19.558 19.558 0 014.362-.449q.431 0 1.041.054t1.221.144q.61.09 1.221.215a5.771 5.771 0 011.041.305zm3.769-4.093a29.883 29.883 0 013.518-.736 28.922 28.922 0 014.524-.341 11.023 11.023 0 014 .628 6.021 6.021 0 012.531 1.777 6.934 6.934 0 011.329 2.729 14.543 14.543 0 01.395 3.518v10.665h-5.348V17.844a7.213 7.213 0 00-.682-3.662 2.783 2.783 0 00-2.549-1.077q-.574 0-1.22.054t-1.149.126v14.577h-5.349zm26.997-6.104a2.935 2.935 0 01-.951 2.316 3.406 3.406 0 01-4.488 0 3.294 3.294 0 010-4.631 3.406 3.406 0 014.488 0 2.937 2.937 0 01.951 2.315zm-.5 24.342h-5.349V8.974h5.349zm11.81-19.387a12.391 12.391 0 013.949.539 6.14 6.14 0 012.531 1.544 5.69 5.69 0 011.346 2.441 12.059 12.059 0 01.395 3.2v11.129q-1.15.252-3.2.592a30.719 30.719 0 01-4.954.341 15.693 15.693 0 01-3.321-.323 7.2 7.2 0 01-2.567-1.059 4.841 4.841 0 01-1.651-1.921 6.624 6.624 0 01-.574-2.908 5.51 5.51 0 01.664-2.8 5.112 5.112 0 011.777-1.831 8.04 8.04 0 012.549-.987 14.31 14.31 0 012.98-.305 17.04 17.04 0 011.849.09 8.357 8.357 0 011.31.233v-.5a2.963 2.963 0 00-.826-2.19 4 4 0 00-2.872-.826 18.359 18.359 0 00-2.693.2 11.6 11.6 0 00-2.3.556l-.682-4.308q.466-.143 1.167-.305t1.526-.287q.826-.126 1.741-.216t1.856-.099zm.431 15.653q.789 0 1.508-.036a10.308 10.308 0 001.149-.108v-4.056q-.323-.071-.969-.143a10.783 10.783 0 00-1.185-.072 10.638 10.638 0 00-1.418.09 3.713 3.713 0 00-1.167.341 2 2 0 00-.79.682 1.9 1.9 0 00-.287 1.077 1.834 1.834 0 00.844 1.741 4.662 4.662 0 002.315.484zM25.824 8.161L12.912.804 0 8.161v14.715l12.912 7.356 12.912-7.356z"/><path d="M14.057 25.495v-9.588l8.328-4.795V20.7z" fill="#3980f5"/><path d="M3.44 11.113v9.588l8.328 4.795v-9.588z" fill="#30c730"/><path d="M4.381 9.335l8.44 4.759 8.44-4.759-8.44-4.76z" fill="#f01616"/></svg>