<svg xmlns="http://www.w3.org/2000/svg" width="49" height="49"><g transform="translate(-1073 -3585)" fill="#fff"><rect width="49" height="49" rx="24.5" transform="translate(1073 3585)" opacity=".5"/><path d="M1110.054 3601.827a10.305 10.305 0 01-2.848.781 4.915 4.915 0 002.174-2.732 9.878 9.878 0 01-3.134 1.2 4.942 4.942 0 00-8.55 3.38 5.089 5.089 0 00.115 1.127 13.991 13.991 0 01-10.188-5.175 4.944 4.944 0 001.521 6.607 4.881 4.881 0 01-2.236-.607v.054a4.966 4.966 0 003.96 4.857 4.933 4.933 0 01-1.3.163 4.37 4.37 0 01-.936-.084 4.99 4.99 0 004.619 3.443 9.932 9.932 0 01-6.128 2.108 9.26 9.26 0 01-1.179-.07 13.915 13.915 0 007.583 2.218 13.971 13.971 0 0014.068-14.065c0-.219-.008-.429-.018-.639a9.861 9.861 0 002.477-2.566z"/></g></svg>